<?xml version="1.0" encoding="utf-8"?>
<!-- Generator: Adobe Illustrator 25.2.3, SVG Export Plug-In . SVG Version: 6.00 Build 0)  -->
<svg version="1.1" id="Layer_1" xmlns="http://www.w3.org/2000/svg" xmlns:xlink="http://www.w3.org/1999/xlink" x="0px" y="0px"
	 viewBox="0 0 200 200" style="enable-background:new 0 0 100 100;" xml:space="preserve">
<style type="text/css">
	.st0{fill:#231F20;}
	.st1{fill:#898D95;}
	.st2{fill:#0087D0;}
</style>
<path class="st2" d="M116.5,85.6L116.5,85.6l-7.4-12.7l-7.8,4.5l7.3,12.7l0,0c0.4,0.8,0.7,1.7,0.7,2.6c0,2.7-2.1,5-4.9,5.1h-20
	c0-1.7-0.4-3.4-1.3-4.9c-0.9-1.3-2.3-2.1-3.8-2.3l-16.8-1.7v-2.3h-6.3v6.3H35.7V99h20.6v6.3H35.7v6.3h20.6v6.3h6.3v-2.4l16.8-1.6
	c1.5-0.2,2.9-1.1,3.8-2.3c0.8-1.5,1.3-3.2,1.3-4.9h20c4.2,0,8.1-2,10.7-5.2c0.9-1.1,1.6-2.4,2.1-3.7c0.6-1.6,0.9-3.3,0.9-5.1
	C118.3,90.2,117.7,87.7,116.5,85.6z"/>
<path class="st2" d="M47.4,8L47.4,8l-7.3,12.7l7.8,4.5l7.3-12.7l0,0c0.4-0.8,1.1-1.4,1.9-1.9c2.4-1.4,5.4-0.6,6.8,1.7l0,0l10,17.3
	c-1.5,0.9-2.8,2.1-3.6,3.6c-0.7,1.4-0.7,3-0.1,4.5l7,15.3l-2,1.2l0,0l0,0l3.2,5.5l5.5-3.2L94,74.3l5.5-3.2l0,0l0,0L89.2,53.4
	l5.5-3.2L104.9,68l5.5-3.1l0,0l0,0l-10.3-17.9l5.5-3.1l0,0l0,0l-3.1-5.5l-2,1.2l-9.9-13.7c-1-1.3-2.4-2-4-2.2
	c-1.7,0-3.4,0.5-4.9,1.4l-10-17.3l0,0c-2.1-3.6-5.8-6.1-9.9-6.7C56,0.3,50.3,3,47.4,8L47.4,8z"/>
<path class="st2" d="M14.7,106.6h14.7v-9H14.7l0,0c-0.9,0-1.8-0.2-2.6-0.7c-2.4-1.3-3.2-4.4-1.9-6.8l0,0l10-17.3
	c1.5,0.9,3.2,1.4,4.9,1.4c1.6-0.1,3-0.9,4-2.2l9.8-13.7l2,1.2l0,0l0,0l3.1-5.5l-5.5-3.1l10.3-17.8l-5.5-3.2l0,0l0,0L33.1,47.8
	l-5.5-3.2l10.3-17.8l-5.5-3.1l0,0l0,0L22.1,41.5l-5.5-3.2l0,0l0,0l-3.2,5.5l2,1.2l-7,15.3c-0.6,1.5-0.5,3.1,0.1,4.5
	c0.9,1.5,2.1,2.7,3.6,3.6l-10,17.3l0,0c-2.1,3.6-2.4,8-0.8,11.9c0.5,1.3,1.3,2.6,2.2,3.7C6.3,104.6,10.4,106.5,14.7,106.6
	L14.7,106.6z"/>
</svg>
