<?xml version="1.0" encoding="utf-8"?>
<svg id="Layer_1" data-name="Layer 1" xmlns="http://www.w3.org/2000/svg" width="76" height="76"
    viewBox="0 0 76 76">
    <defs>
        <style>.cls-1{fill:#00;}</style>
    </defs>
    <title>powerclerk-logo-white</title>
    <path class="cls-1"
        d="M33.62,19.56l9.05-9L33.51,1.35a37.06,37.06,0,0,0-32,32.09h0l10.87-8.2,7.1,9.4h0A19.11,19.11,0,0,1,33.62,19.56Z" />
    <path class="cls-1"
        d="M56.82,33.57l8.76,8.75L75,32.94A37,37,0,0,0,42.81,1.32h0L50.87,12l-9.58,7.24h0A19.07,19.07,0,0,1,56.82,33.57Z" />
    <path class="cls-1"
        d="M34.74,56.85v0A19.09,19.09,0,0,1,19.62,42.18l-8.76-8.76L1.53,42.75a37.06,37.06,0,0,0,31.61,32h0a2.31,2.31,0,0,1,.9.1L25.63,63.73Z" />
    <path class="cls-1"
        d="M75.08,42.2l-11,8.28-7-9.28h0A19.1,19.1,0,0,1,42.23,56.76l-8.46,8.47,9.55,9.55A37.06,37.06,0,0,0,75.08,42.21Z" />
</svg>