<svg xmlns="http://www.w3.org/2000/svg" viewBox="0 0 70 70">
    <defs>
        <style>.cls-2{fill:#000;}.cls-3{fill:none;}</style>
    </defs>
    <g data-name="Layer 2">
        <g data-name="Layer 1">
            <path class="cls-2"
                d="M33.76,6.67a.91.91,0,0,0-.68.29L12.94,29a.92.92,0,0,0,.11,1.3.94.94,0,0,0,.62.24h.17l9.21-1.71L15.84,43a.91.91,0,0,0,1.49,1L37.45,22a.93.93,0,0,0-.64-1.57h-.2L27.4,22.11,34.58,8a.91.91,0,0,0-.3-1.17.87.87,0,0,0-.52-.17Z" />
            <path class="cls-2"
                d="M27.82,10.09a1.38,1.38,0,0,1-1.38-1.38V6.16a1.38,1.38,0,0,1,2.76,0V8.71a1.38,1.38,0,0,1-1.38,1.38Z" />
            <path class="cls-2"
                d="M22.6,15.79a1.36,1.36,0,0,1-1.38-1.36h0V6.16A1.38,1.38,0,0,1,24,6v8.39a1.37,1.37,0,0,1-1.37,1.37Z" />
            <path class="cls-2"
                d="M22.6,46.22a1.38,1.38,0,0,1-1.38-1.38h0v-2.5a1.38,1.38,0,1,1,2.76,0v2.5a1.38,1.38,0,0,1-1.38,1.38Z" />
            <path class="cls-2"
                d="M27.82,46.22a1.38,1.38,0,0,1-1.38-1.38h0V36.58a1.38,1.38,0,0,1,2.76,0v8.26a1.38,1.38,0,0,1-1.38,1.38Z" />
        </g>
    </g>
</svg>